<mxfile host="app.diagrams.net" modified="2024-02-23T00:24:24.391Z" agent="Mozilla/5.0 (Macintosh; Intel Mac OS X 10_15_7) AppleWebKit/537.36 (KHTML, like Gecko) Chrome/122.0.0.0 Safari/537.36" etag="THFNoiI7GbczwPRKzkyB" version="23.1.6" type="device">
  <diagram name="Page-1" id="qnw6b0hAXzBBJXYDkprD">
    <mxGraphModel dx="1272" dy="853" grid="0" gridSize="10" guides="1" tooltips="1" connect="1" arrows="1" fold="1" page="0" pageScale="1" pageWidth="827" pageHeight="1169" math="0" shadow="0">
      <root>
        <mxCell id="0" />
        <mxCell id="1" parent="0" />
        <mxCell id="SSFhvT_4Yt1F3LWrKToh-4" style="edgeStyle=orthogonalEdgeStyle;rounded=0;orthogonalLoop=1;jettySize=auto;html=1;" edge="1" parent="1" source="SSFhvT_4Yt1F3LWrKToh-2" target="SSFhvT_4Yt1F3LWrKToh-3">
          <mxGeometry relative="1" as="geometry" />
        </mxCell>
        <mxCell id="SSFhvT_4Yt1F3LWrKToh-2" value="COGNITO_CLIENT_SECRET" style="whiteSpace=wrap;html=1;" vertex="1" parent="1">
          <mxGeometry x="64" y="317.12" width="193" height="53" as="geometry" />
        </mxCell>
        <mxCell id="SSFhvT_4Yt1F3LWrKToh-6" style="edgeStyle=orthogonalEdgeStyle;rounded=0;orthogonalLoop=1;jettySize=auto;html=1;" edge="1" parent="1" source="SSFhvT_4Yt1F3LWrKToh-3" target="SSFhvT_4Yt1F3LWrKToh-5">
          <mxGeometry relative="1" as="geometry" />
        </mxCell>
        <mxCell id="SSFhvT_4Yt1F3LWrKToh-3" value="SHA-256" style="ellipse;whiteSpace=wrap;html=1;" vertex="1" parent="1">
          <mxGeometry x="306" y="303.62" width="80" height="80" as="geometry" />
        </mxCell>
        <mxCell id="SSFhvT_4Yt1F3LWrKToh-9" style="edgeStyle=orthogonalEdgeStyle;rounded=0;orthogonalLoop=1;jettySize=auto;html=1;" edge="1" parent="1" source="SSFhvT_4Yt1F3LWrKToh-5" target="SSFhvT_4Yt1F3LWrKToh-8">
          <mxGeometry relative="1" as="geometry" />
        </mxCell>
        <mxCell id="SSFhvT_4Yt1F3LWrKToh-5" value="RAW_KEY" style="whiteSpace=wrap;html=1;" vertex="1" parent="1">
          <mxGeometry x="435" y="313.62" width="120" height="60" as="geometry" />
        </mxCell>
        <mxCell id="SSFhvT_4Yt1F3LWrKToh-11" style="edgeStyle=orthogonalEdgeStyle;rounded=0;orthogonalLoop=1;jettySize=auto;html=1;" edge="1" parent="1" source="SSFhvT_4Yt1F3LWrKToh-8" target="SSFhvT_4Yt1F3LWrKToh-10">
          <mxGeometry relative="1" as="geometry" />
        </mxCell>
        <mxCell id="SSFhvT_4Yt1F3LWrKToh-8" value="crypto.subtle.importKey&lt;br&gt;AES256-GCM" style="ellipse;whiteSpace=wrap;html=1;" vertex="1" parent="1">
          <mxGeometry x="594" y="270" width="147.25" height="147.25" as="geometry" />
        </mxCell>
        <mxCell id="SSFhvT_4Yt1F3LWrKToh-15" style="edgeStyle=orthogonalEdgeStyle;rounded=0;orthogonalLoop=1;jettySize=auto;html=1;" edge="1" parent="1" source="SSFhvT_4Yt1F3LWrKToh-10" target="SSFhvT_4Yt1F3LWrKToh-14">
          <mxGeometry relative="1" as="geometry">
            <Array as="points">
              <mxPoint x="852" y="136" />
            </Array>
          </mxGeometry>
        </mxCell>
        <mxCell id="SSFhvT_4Yt1F3LWrKToh-28" style="edgeStyle=orthogonalEdgeStyle;rounded=0;orthogonalLoop=1;jettySize=auto;html=1;entryX=0;entryY=0.5;entryDx=0;entryDy=0;" edge="1" parent="1" source="SSFhvT_4Yt1F3LWrKToh-10" target="SSFhvT_4Yt1F3LWrKToh-27">
          <mxGeometry relative="1" as="geometry">
            <Array as="points">
              <mxPoint x="852" y="568" />
            </Array>
          </mxGeometry>
        </mxCell>
        <mxCell id="SSFhvT_4Yt1F3LWrKToh-10" value="crypto.subtle" style="whiteSpace=wrap;html=1;" vertex="1" parent="1">
          <mxGeometry x="792" y="313.62" width="120" height="60" as="geometry" />
        </mxCell>
        <mxCell id="SSFhvT_4Yt1F3LWrKToh-16" style="edgeStyle=orthogonalEdgeStyle;rounded=0;orthogonalLoop=1;jettySize=auto;html=1;" edge="1" parent="1" source="SSFhvT_4Yt1F3LWrKToh-13" target="SSFhvT_4Yt1F3LWrKToh-14">
          <mxGeometry relative="1" as="geometry" />
        </mxCell>
        <mxCell id="SSFhvT_4Yt1F3LWrKToh-13" value="Date().ISOString()" style="whiteSpace=wrap;html=1;" vertex="1" parent="1">
          <mxGeometry x="972.25" y="246" width="120" height="60" as="geometry" />
        </mxCell>
        <mxCell id="SSFhvT_4Yt1F3LWrKToh-18" style="edgeStyle=orthogonalEdgeStyle;rounded=0;orthogonalLoop=1;jettySize=auto;html=1;" edge="1" parent="1" source="SSFhvT_4Yt1F3LWrKToh-14" target="SSFhvT_4Yt1F3LWrKToh-17">
          <mxGeometry relative="1" as="geometry" />
        </mxCell>
        <mxCell id="SSFhvT_4Yt1F3LWrKToh-14" value="crypto.subtle.encrypt&lt;br&gt;AES256-GCM" style="ellipse;whiteSpace=wrap;html=1;" vertex="1" parent="1">
          <mxGeometry x="962" y="65.25" width="140.5" height="140.5" as="geometry" />
        </mxCell>
        <mxCell id="SSFhvT_4Yt1F3LWrKToh-29" style="edgeStyle=orthogonalEdgeStyle;rounded=0;orthogonalLoop=1;jettySize=auto;html=1;entryX=1;entryY=0.5;entryDx=0;entryDy=0;" edge="1" parent="1" source="SSFhvT_4Yt1F3LWrKToh-17" target="SSFhvT_4Yt1F3LWrKToh-27">
          <mxGeometry relative="1" as="geometry">
            <Array as="points">
              <mxPoint x="1225" y="568" />
            </Array>
          </mxGeometry>
        </mxCell>
        <mxCell id="SSFhvT_4Yt1F3LWrKToh-17" value="state" style="whiteSpace=wrap;html=1;" vertex="1" parent="1">
          <mxGeometry x="1165" y="313.62" width="120" height="60" as="geometry" />
        </mxCell>
        <mxCell id="SSFhvT_4Yt1F3LWrKToh-20" style="edgeStyle=orthogonalEdgeStyle;rounded=0;orthogonalLoop=1;jettySize=auto;html=1;startArrow=classic;startFill=1;" edge="1" parent="1" source="SSFhvT_4Yt1F3LWrKToh-19" target="SSFhvT_4Yt1F3LWrKToh-13">
          <mxGeometry relative="1" as="geometry" />
        </mxCell>
        <mxCell id="SSFhvT_4Yt1F3LWrKToh-19" value="Date().ISOString()" style="whiteSpace=wrap;html=1;" vertex="1" parent="1">
          <mxGeometry x="972.25" y="381" width="120" height="60" as="geometry" />
        </mxCell>
        <mxCell id="SSFhvT_4Yt1F3LWrKToh-21" value="&amp;lt; 5Min" style="text;html=1;align=center;verticalAlign=middle;resizable=0;points=[];autosize=1;strokeColor=none;fillColor=none;" vertex="1" parent="1">
          <mxGeometry x="1036" y="331" width="54" height="26" as="geometry" />
        </mxCell>
        <mxCell id="SSFhvT_4Yt1F3LWrKToh-30" style="edgeStyle=orthogonalEdgeStyle;rounded=0;orthogonalLoop=1;jettySize=auto;html=1;" edge="1" parent="1" source="SSFhvT_4Yt1F3LWrKToh-27" target="SSFhvT_4Yt1F3LWrKToh-19">
          <mxGeometry relative="1" as="geometry" />
        </mxCell>
        <mxCell id="SSFhvT_4Yt1F3LWrKToh-27" value="crypto.subtle.encrypt&lt;br&gt;AES256-GCM" style="ellipse;whiteSpace=wrap;html=1;" vertex="1" parent="1">
          <mxGeometry x="962" y="498" width="140.5" height="140.5" as="geometry" />
        </mxCell>
      </root>
    </mxGraphModel>
  </diagram>
</mxfile>
